HIERARCHY
ROOT Hips
{
	OFFSET -0.001795 -0.223333 0.028219
	CHANNELS 6 Xposition Yposition Zposition Zrotation Yrotation Xrotation 
	JOINT LeftUpLeg
	{
		OFFSET 0.069520 -0.091406 -0.006815
		CHANNELS 3 Zrotation Yrotation Xrotation
		JOINT LeftLeg
		{
			OFFSET 0.034277 -0.375199 -0.004496
			CHANNELS 3 Zrotation Yrotation Xrotation
			JOINT LeftFoot
			{
				OFFSET -0.013596 -0.397961 -0.043693
				CHANNELS 3 Zrotation Yrotation Xrotation
				JOINT LeftToe
				{
					OFFSET 0.026358 -0.055791 0.119288
					CHANNELS 3 Zrotation Yrotation Xrotation
					End Site
					{
						OFFSET 0.000000 0.000000 0.000000
					}
				}
			}
		}
	}
	JOINT RightUpLeg
	{
		OFFSET -0.067670 -0.090522 -0.004320
		CHANNELS 3 Zrotation Yrotation Xrotation
		JOINT RightLeg
		{
			OFFSET -0.038290 -0.382569 -0.008850
			CHANNELS 3 Zrotation Yrotation Xrotation
			JOINT RightFoot
			{
				OFFSET 0.015774 -0.398415 -0.042312
				CHANNELS 3 Zrotation Yrotation Xrotation
				JOINT RightToe
				{
					OFFSET -0.025372 -0.048144 0.123348
					CHANNELS 3 Zrotation Yrotation Xrotation
					End Site
					{
						OFFSET 0.000000 0.000000 0.000000
					}
				}
			}
		}
	}
	JOINT Spine
	{
		OFFSET -0.002533 0.108963 -0.026696
		CHANNELS 3 Zrotation Yrotation Xrotation
		JOINT Spine1
		{
			OFFSET 0.005487 0.135180 0.001092
			CHANNELS 3 Zrotation Yrotation Xrotation
			JOINT Spine2
			{
				OFFSET 0.001457 0.052922 0.025425
				CHANNELS 3 Zrotation Yrotation Xrotation
				JOINT Neck
				{
					OFFSET -0.002778 0.213870 -0.042857
					CHANNELS 3 Zrotation Yrotation Xrotation
					JOINT Head
					{
						OFFSET 0.005152 0.064970 0.051349
						CHANNELS 3 Zrotation Yrotation Xrotation
						End Site
						{
							OFFSET 0.000000 0.000000 0.000000
						}
					}
				}
				JOINT LeftShoulder
				{
					OFFSET 0.078845 0.121749 -0.034090
					CHANNELS 3 Zrotation Yrotation Xrotation
					JOINT LeftArm
					{
						OFFSET 0.090977 0.030469 -0.008868
						CHANNELS 3 Zrotation Yrotation Xrotation
						JOINT LeftForeArm
						{
							OFFSET 0.259612 -0.012772 -0.027456
							CHANNELS 3 Zrotation Yrotation Xrotation
							JOINT LeftHand
							{
								OFFSET 0.249234 0.008986 -0.001171
								CHANNELS 3 Zrotation Yrotation Xrotation
								End Site
								{
									OFFSET 0.000000 0.000000 0.000000
								}
							}
						}
					}
				}
				JOINT RightShoulder
				{
					OFFSET -0.081759 0.118833 -0.038615
					CHANNELS 3 Zrotation Yrotation Xrotation
					JOINT RightArm
					{
						OFFSET -0.096012 0.032551 -0.009143
						CHANNELS 3 Zrotation Yrotation Xrotation
						JOINT RightForeArm
						{
							OFFSET -0.253742 -0.013329 -0.021401
							CHANNELS 3 Zrotation Yrotation Xrotation
							JOINT RightHand
							{
								OFFSET -0.255298 0.007772 -0.005559
								CHANNELS 3 Zrotation Yrotation Xrotation
								End Site
								{
									OFFSET 0.000000 0.000000 0.000000
								}
							}
						}
					}
				}
			}
		}
	}
}
MOTION
Frames: 6
Frame Time: 0.050000
0.000000 0.949949 0.000000 0.137897 2.751343 1.688046 2.285697 -0.064408 -0.223757 -0.551775 0.146401 -3.060124 0.390601 4.289304 8.205080 0.000000 0.000000 0.000000 -1.463074 0.180653 -1.661961 -0.608429 0.130900 1.458136 -0.320985 -2.697775 4.458919 0.000000 0.000000 0.000000 2.545204 -0.107831 1.136483 -0.357615 0.217698 -1.488284 -1.627480 -1.109208 7.453634 1.671701 -0.473753 -9.060748 0.000000 0.000000 0.000000 -18.040578 -1.220660 -1.149903 -54.571028 -3.330982 -5.265403 -10.675129 -24.301431 3.231506 0.000000 0.000000 0.000000 15.646052 -1.511387 -2.006778 58.023364 5.695403 -3.177682 5.075425 25.153631 1.967648 0.000000 0.000000 0.000000 
0.003293 0.948828 0.001676 -0.040541 2.548810 2.081957 1.925342 -0.003026 0.542108 -0.150642 0.169083 -4.759402 0.529060 4.469367 8.081006 0.000000 0.000000 0.000000 -2.137639 0.205542 -1.869587 0.352808 0.003921 1.218189 -0.158949 -2.223697 4.173298 0.000000 0.000000 0.000000 3.128046 -0.087183 0.547318 -0.950772 0.474269 -0.886149 -1.678597 -1.627492 6.652991 0.642854 0.246739 -9.568987 0.000000 0.000000 0.000000 -17.827164 -0.136446 -1.577531 -54.524863 -2.833148 -5.415360 -11.455118 -24.475116 3.449101 0.000000 0.000000 0.000000 14.682641 -2.166288 -2.369306 59.632288 4.590850 -3.714622 5.750041 26.322219 2.168911 0.000000 0.000000 0.000000 
0.006214 0.948346 0.002793 0.332046 2.979850 2.262507 1.555159 -0.011368 0.319127 -0.333700 0.160000 -4.085612 0.174450 3.750845 7.742101 0.000000 0.000000 0.000000 -2.747755 0.223042 -2.060674 0.266350 0.019680 1.382033 -0.534648 -3.283437 4.761498 0.000000 0.000000 0.000000 3.008358 -0.059779 0.148206 -0.862765 0.472522 -2.317045 -2.272468 -2.133844 7.955455 0.171961 0.538175 -9.370331 0.000000 0.000000 0.000000 -17.859923 -0.593569 -1.260583 -54.404130 -3.258045 -5.343583 -10.884091 -23.566060 3.218858 0.000000 0.000000 0.000000 15.610471 -2.037395 -2.417306 58.570506 4.428271 -3.864470 6.091320 26.660387 2.285628 0.000000 0.000000 0.000000 
0.008443 0.948435 0.003729 0.338210 3.093959 2.027576 1.207506 0.019753 0.594975 0.078082 0.135657 -4.186404 -0.137836 3.016853 7.265439 0.000000 0.000000 0.000000 -3.025823 0.204404 -1.830278 0.465914 -0.012258 1.171947 -0.387250 -2.963287 4.820229 0.000000 0.000000 0.000000 2.830532 -0.049561 0.078161 -1.235907 0.625928 -1.611830 -1.660652 -3.126758 7.204839 -0.875842 1.135780 -8.335613 0.000000 0.000000 0.000000 -17.796605 0.491639 -1.608273 -54.734848 -2.799294 -5.532791 -10.678374 -23.988030 3.284409 0.000000 0.000000 0.000000 14.794830 -1.789143 -2.414803 58.783761 4.476069 -3.791498 6.778733 26.516264 2.337687 0.000000 0.000000 0.000000 
0.009945 0.948977 0.004426 0.466141 3.510985 2.010600 0.928698 0.052073 0.908843 0.242462 0.137984 -4.578035 -0.414876 2.703383 7.634135 0.000000 0.000000 0.000000 -3.305719 0.191226 -1.670100 0.387899 -0.016045 0.800122 -0.670917 -3.769055 5.365046 0.000000 0.000000 0.000000 2.497834 -0.045919 0.115180 -0.851486 0.462575 -1.993698 -2.071044 -3.193479 7.443010 -0.960335 1.212509 -8.357446 0.000000 0.000000 0.000000 -17.788275 0.504679 -1.662508 -54.209637 -3.174760 -5.327421 -11.181884 -23.719583 3.340239 0.000000 0.000000 0.000000 14.818408 -2.193453 -2.567776 58.677928 4.329822 -3.874239 7.631700 26.516004 2.540867 0.000000 0.000000 0.000000 
0.010934 0.949424 0.004880 0.535612 3.831020 2.224035 0.676091 0.048349 0.775312 0.653204 0.120303 -4.785086 -0.566731 2.378276 7.440336 0.000000 0.000000 0.000000 -3.404303 0.203885 -1.841989 0.239430 -0.000032 0.759458 -0.640670 -3.713085 5.470499 0.000000 0.000000 0.000000 2.239607 -0.018639 -0.300058 -0.821251 0.451387 -2.040598 -2.003919 -3.563460 7.632153 -0.845053 1.079367 -7.696445 0.000000 0.000000 0.000000 -17.656544 0.958343 -1.836430 -54.207148 -3.307103 -5.285955 -10.817858 -23.770200 3.284418 0.000000 0.000000 0.000000 14.625572 -2.075738 -2.519600 58.617181 4.344989 -3.883570 7.581179 26.208990 2.486885 0.000000 0.000000 0.000000 
